<?xml version="1.0" encoding="utf-8"?>
<!-- Generator: Adobe Illustrator 16.0.0, SVG Export Plug-In . SVG Version: 6.00 Build 0)  -->
<!DOCTYPE svg PUBLIC "-//W3C//DTD SVG 1.1//EN" "http://www.w3.org/Graphics/SVG/1.1/DTD/svg11.dtd">
<svg version="1.1" id="Layer_1" xmlns="http://www.w3.org/2000/svg" xmlns:xlink="http://www.w3.org/1999/xlink" x="0px" y="0px"
	 width="159.121px" height="50.969px" viewBox="0 0 159.121 50.969" enable-background="new 0 0 159.121 50.969"
	 xml:space="preserve">
<g id="Layer_1_1_" display="none">
</g>
<g id="Layer_3">
	<g>
		<path fill="#172037" d="M0,38.76L7.459,0.666l12.163,27.54l12.599-27.54l6.701,38.096h-5.485l-3.419-21.389L19.53,40.391
			L9.341,17.35l-3.81,21.412H0V38.76z"/>
		<path fill="#172037" d="M63.797,16.409h5.186v22.353h-5.186V36.42c-2.127,1.988-4.414,2.982-6.862,2.982
			c-3.091,0-5.646-1.117-7.665-3.352c-2.004-2.278-3.006-5.125-3.006-8.536c0-3.351,1.002-6.143,3.006-8.376
			s4.514-3.351,7.527-3.351c2.601,0,4.935,1.071,7,3.213V16.409z M51.542,27.516c0,2.143,0.573,3.886,1.721,5.232
			c1.178,1.361,2.662,2.041,4.452,2.041c1.912,0,3.457-0.658,4.636-1.974c1.178-1.36,1.768-3.09,1.768-5.187
			c0-2.096-0.59-3.825-1.768-5.188c-1.179-1.331-2.708-1.997-4.59-1.997c-1.774,0-3.259,0.673-4.452,2.02
			C52.131,23.829,51.542,25.512,51.542,27.516z"/>
		<path fill="#172037" d="M98.998,38.233c0,1.057-0.034,1.984-0.104,2.789c-0.068,0.803-0.164,1.51-0.287,2.123
			c-0.366,1.684-1.086,3.128-2.156,4.337c-2.02,2.325-4.797,3.487-8.33,3.487c-2.982,0-5.439-0.807-7.367-2.42
			c-1.989-1.66-3.137-3.951-3.442-6.873h5.187c0.198,1.102,0.528,1.951,0.987,2.547c1.07,1.393,2.631,2.088,4.682,2.088
			c3.777,0,5.668-2.311,5.668-6.932V36.26c-2.051,2.096-4.414,3.144-7.091,3.144c-3.045,0-5.539-1.103-7.481-3.305
			c-1.959-2.233-2.938-5.026-2.938-8.376c0-3.259,0.91-6.028,2.73-8.308c1.958-2.417,4.543-3.626,7.756-3.626
			c2.815,0,5.155,1.048,7.022,3.144v-2.524h5.163V38.233z M94.042,27.642c0-2.169-0.582-3.902-1.744-5.201
			c-1.179-1.329-2.687-1.993-4.521-1.993c-1.959,0-3.504,0.726-4.637,2.177c-1.024,1.299-1.537,2.979-1.537,5.042
			c0,2.031,0.513,3.695,1.537,4.994c1.117,1.422,2.662,2.131,4.637,2.131c1.974,0,3.533-0.717,4.682-2.153
			C93.514,31.338,94.042,29.674,94.042,27.642z"/>
		<path fill="#172037" d="M123.873,0h5.188v38.76h-5.188v-2.34c-2.035,1.988-4.337,2.982-6.907,2.982
			c-3.062,0-5.6-1.117-7.618-3.352c-2.006-2.278-3.008-5.125-3.008-8.536c0-3.335,1.002-6.12,3.008-8.354
			c1.987-2.249,4.489-3.374,7.504-3.374c2.615,0,4.957,1.071,7.021,3.213V0z M111.618,27.516c0,2.143,0.573,3.886,1.722,5.232
			c1.178,1.361,2.662,2.041,4.452,2.041c1.912,0,3.457-0.658,4.636-1.974c1.178-1.36,1.768-3.09,1.768-5.187
			c0-2.096-0.59-3.825-1.768-5.188c-1.179-1.331-2.707-1.997-4.59-1.997c-1.775,0-3.259,0.673-4.451,2.02
			C112.207,23.829,111.618,25.512,111.618,27.516z"/>
		<path fill="#172037" d="M153.936,16.409h5.187v22.353h-5.187V36.42c-2.127,1.988-4.414,2.982-6.861,2.982
			c-3.092,0-5.646-1.117-7.665-3.352c-2.005-2.278-3.007-5.125-3.007-8.536c0-3.351,1.002-6.143,3.007-8.376
			c2.004-2.233,4.513-3.351,7.526-3.351c2.602,0,4.935,1.071,7,3.213V16.409z M141.68,27.516c0,2.143,0.574,3.886,1.723,5.232
			c1.178,1.361,2.662,2.041,4.451,2.041c1.912,0,3.457-0.658,4.637-1.974c1.178-1.36,1.767-3.09,1.767-5.187
			c0-2.096-0.589-3.825-1.767-5.188c-1.18-1.331-2.708-1.997-4.59-1.997c-1.775,0-3.26,0.673-4.453,2.02
			C142.27,23.829,141.68,25.512,141.68,27.516z"/>
	</g>
</g>
<g id="struttura" display="none">
</g>
</svg>
