<?xml version="1.0" encoding="utf-8"?>
<!-- Generator: Adobe Illustrator 16.0.0, SVG Export Plug-In . SVG Version: 6.00 Build 0)  -->
<!DOCTYPE svg PUBLIC "-//W3C//DTD SVG 1.1//EN" "http://www.w3.org/Graphics/SVG/1.1/DTD/svg11.dtd">
<svg version="1.1" xmlns="http://www.w3.org/2000/svg" xmlns:xlink="http://www.w3.org/1999/xlink" x="0px" y="0px" width="24px"
	 height="23.002px" viewBox="0 0 24 23.002" enable-background="new 0 0 24 23.002" xml:space="preserve">
<g id="Layer_1" display="none">
</g>
<g id="Layer_3">
	<path fill="#EFCD06" d="M21.473,0H1.143C0.171,0,0,0.771,0,1.719v20.417C0,23.086,0.171,23,1.143,23h20.33
		C22.445,23,24,23.086,24,22.136V1.719C24,0.771,22.445,0,21.473,0z M7,20H3V8h4V20z M4.688,7.388c-1.134,0-2.051-0.919-2.051-2.052
		c0-1.131,0.917-2.051,2.051-2.051c1.131,0,2.051,0.92,2.051,2.051C6.738,6.469,5.818,7.388,4.688,7.388z M20,20h-3v-5.207
		c0-1.321-0.045-3.019-1.858-3.019C13.3,11.774,13,13.213,13,14.698V20H9V8h4v2c0,0,0.891-1.589,2.613-1.589
		c3.58,0,4.387,2.607,4.387,5.674V20z"/>
</g>
<g id="struttura">
</g>
</svg>
