<?xml version="1.0" encoding="utf-8"?>
<!-- Generator: Adobe Illustrator 16.0.0, SVG Export Plug-In . SVG Version: 6.00 Build 0)  -->
<!DOCTYPE svg PUBLIC "-//W3C//DTD SVG 1.1//EN" "http://www.w3.org/Graphics/SVG/1.1/DTD/svg11.dtd">
<svg version="1.1" id="Layer_1" xmlns="http://www.w3.org/2000/svg" xmlns:xlink="http://www.w3.org/1999/xlink" x="0px" y="0px"
	 width="23.859px" height="23.857px" viewBox="0 0 23.859 23.857" enable-background="new 0 0 23.859 23.857" xml:space="preserve">
<g id="Layer_1_1_">
</g>
<g>
	<g>
		<g id="Layer_3">
			<g>
				<path fill="#1E2B46" d="M11.93,0C5.342,0,0,5.341,0,11.929c0,4.885,2.938,9.082,7.142,10.926
					c-0.034-0.833-0.008-1.833,0.208-2.738c0.229-0.969,1.534-6.5,1.534-6.5s-0.382-0.763-0.382-1.889
					c0-1.768,1.024-3.088,2.302-3.088c1.085,0,1.608,0.815,1.608,1.791c0,1.091-0.696,2.722-1.054,4.233
					c-0.298,1.265,0.634,2.297,1.884,2.297c2.26,0,3.781-2.902,3.781-6.341c0-2.614-1.761-4.572-4.964-4.572
					c-3.618,0-5.873,2.699-5.873,5.714c0,1.038,0.308,1.772,0.787,2.339c0.222,0.26,0.251,0.365,0.172,0.665
					c-0.059,0.219-0.188,0.748-0.243,0.957c-0.08,0.302-0.324,0.411-0.598,0.299c-1.666-0.681-2.443-2.506-2.443-4.558
					c0-3.388,2.859-7.451,8.525-7.451c4.556,0,7.553,3.296,7.553,6.833c0,4.679-2.603,8.176-6.438,8.175
					c-1.288,0-2.499-0.695-2.915-1.485c0,0-0.69,2.748-0.839,3.278c-0.253,0.92-0.748,1.839-1.2,2.557
					c1.072,0.315,2.206,0.488,3.382,0.488c6.588,0,11.93-5.341,11.93-11.929S18.518,0,11.93,0z"/>
			</g>
		</g>
		<g id="struttura">
		</g>
	</g>
</g>
</svg>
