<?xml version="1.0" encoding="utf-8"?>
<!-- Generator: Adobe Illustrator 16.0.0, SVG Export Plug-In . SVG Version: 6.00 Build 0)  -->
<!DOCTYPE svg PUBLIC "-//W3C//DTD SVG 1.1//EN" "http://www.w3.org/Graphics/SVG/1.1/DTD/svg11.dtd">
<svg version="1.1" id="Layer_1" xmlns="http://www.w3.org/2000/svg" xmlns:xlink="http://www.w3.org/1999/xlink" x="0px" y="0px"
	 width="34.488px" height="21.963px" viewBox="0 0 34.488 21.963" enable-background="new 0 0 34.488 21.963" xml:space="preserve">
<g id="Layer_1_1_" display="none">
</g>
<g>
	<g>
		<g id="Layer_3">
			<g>
				<path fill="#CDD6CE" d="M0,21.378C0,14.261,0,7.144,0,0c3.758,0,7.516,0,11.272,0c0.31,0.056,0.621,0.117,0.933,0.168
					c3.04,0.491,4.762,2.538,4.705,5.604c-0.033,1.762-0.724,3.146-2.325,4c-0.062,0.034-0.12,0.082-0.135,0.092
					c0.547,0.371,1.128,0.685,1.612,1.11c1.024,0.907,1.397,2.125,1.523,3.458c0.29,3.047-1.704,5.926-4.677,6.609
					c-0.9,0.207-1.843,0.316-2.766,0.327C6.762,21.405,3.38,21.38,0,21.378z M4.365,17.594c2.092,0,4.167,0.089,6.229-0.03
					c1.42-0.082,2.153-0.852,2.39-2.104c0.077-0.403,0.077-0.832,0.046-1.242c-0.076-0.952-0.598-1.608-1.489-1.926
					c-0.398-0.144-0.836-0.248-1.257-0.257c-1.92-0.036-3.84-0.033-5.76-0.042c-0.051,0-0.103,0.021-0.158,0.034
					C4.365,13.901,4.365,15.761,4.365,17.594z M4.359,8.435c0.162,0,0.297,0,0.434,0c1.529,0,3.059,0.007,4.587-0.004
					c0.39-0.002,0.781-0.024,1.161-0.093c1.644-0.296,2.396-1.208,1.974-3.119c-0.143-0.63-0.582-1.049-1.214-1.197
					C10.764,3.896,10.211,3.78,9.66,3.77C7.953,3.734,6.242,3.75,4.531,3.748c-0.052,0-0.104,0.016-0.172,0.027
					C4.359,5.317,4.359,6.843,4.359,8.435z"/>
				<path fill="#CDD6CE" d="M34.488,12.526c0,0.695,0,1.392,0,2.086c-0.18,0.016-0.359,0.043-0.538,0.043
					c-3.489,0.002-6.979,0.002-10.47,0.002c-0.162,0-0.322,0-0.525,0c0.037,0.308,0.06,0.554,0.096,0.797
					c0.238,1.562,1.253,2.667,2.742,2.993c1.81,0.394,3.185-0.104,4.105-1.462c0.086-0.127,0.305-0.23,0.463-0.233
					c1.182-0.021,2.363-0.012,3.546-0.009c0.104,0,0.208,0.021,0.335,0.033c-0.012,0.111-0.007,0.195-0.026,0.272
					c-0.054,0.201-0.094,0.41-0.179,0.599c-1.004,2.201-2.71,3.537-5.061,4.06c-0.496,0.11-1.002,0.171-1.504,0.255
					c-0.445,0-0.891,0-1.336,0c-0.091-0.025-0.179-0.056-0.269-0.077c-0.757-0.171-1.543-0.258-2.264-0.526
					c-2.248-0.834-3.875-2.308-4.474-4.719c-0.471-1.894-0.482-3.803-0.065-5.702c0.453-2.066,1.557-3.69,3.411-4.766
					c1.404-0.815,2.937-1.042,4.533-1.014c3.806,0.068,6.517,2.299,7.272,6.019C34.374,11.623,34.42,12.077,34.488,12.526z
					 M30.128,11.877c0.018-2.041-1.603-3.377-3.86-3.285c-2.058,0.083-3.12,1.924-3.11,3.285
					C25.471,11.877,27.784,11.877,30.128,11.877z"/>
				<path fill="#CDD6CE" d="M30.971,1.268c0,0.718,0,1.408,0,2.12c-3.093,0-6.16,0-9.25,0c0-0.712,0-1.402,0-2.12
					C24.797,1.268,27.865,1.268,30.971,1.268z"/>
			</g>
		</g>
		<g id="struttura">
		</g>
	</g>
</g>
</svg>
