<?xml version="1.0" encoding="utf-8"?>
<!-- Generator: Adobe Illustrator 16.0.0, SVG Export Plug-In . SVG Version: 6.00 Build 0)  -->
<!DOCTYPE svg PUBLIC "-//W3C//DTD SVG 1.1//EN" "http://www.w3.org/Graphics/SVG/1.1/DTD/svg11.dtd">
<svg version="1.1" id="Layer_1" xmlns="http://www.w3.org/2000/svg" xmlns:xlink="http://www.w3.org/1999/xlink" x="0px" y="0px"
	 width="23.857px" height="23.857px" viewBox="0 0 23.857 23.857" enable-background="new 0 0 23.857 23.857" xml:space="preserve">
<g id="Layer_1_1_" display="none">
</g>
<g>
	<g>
		<g id="Layer_3">
			<path id="White_1_" fill="#CDD6CE" d="M22.541,0H1.316C0.59,0,0,0.59,0,1.317v21.225c0,0.727,0.59,1.316,1.316,1.316h11.426
				v-9.238H9.634v-3.602h3.108V8.363c0-3.081,1.883-4.759,4.632-4.759c1.316,0,2.448,0.099,2.778,0.143v3.22l-1.906,0.001
				c-1.496,0-1.785,0.711-1.785,1.753v2.299h3.565l-0.464,3.602H16.46v9.238h6.08c0.728,0,1.316-0.59,1.316-1.316V1.317
				C23.857,0.59,23.268,0,22.541,0z"/>
		</g>
		<g id="struttura">
		</g>
	</g>
</g>
</svg>
